<svg width="155" height="45" viewBox="0 0 155 45" fill="none" xmlns="http://www.w3.org/2000/svg">
<rect width="155" height="45" rx="10" fill="#567DF4"/>
<path d="M49.242 27.182C51.286 27.182 52.714 26.09 52.714 24.298C52.714 22.352 51.076 21.848 49.452 21.33C48.024 20.882 47.478 20.56 47.478 19.804C47.478 19.062 48.08 18.586 49.018 18.586C50.11 18.586 50.726 19.174 51.076 19.958L52.434 19.174C51.818 17.872 50.628 17.018 49.018 17.018C47.366 17.018 45.868 18.04 45.868 19.846C45.868 21.694 47.352 22.254 48.878 22.716C50.334 23.164 51.104 23.458 51.104 24.326C51.104 25.04 50.558 25.614 49.284 25.614C47.954 25.614 47.198 24.956 46.848 23.962L45.462 24.774C45.98 26.23 47.31 27.182 49.242 27.182ZM54.7728 18.95C55.3048 18.95 55.7388 18.502 55.7388 17.984C55.7388 17.452 55.3048 17.018 54.7728 17.018C54.2408 17.018 53.8068 17.452 53.8068 17.984C53.8068 18.502 54.2408 18.95 54.7728 18.95ZM54.0168 27H55.5288V20H54.0168V27ZM62.8563 20V21.036C62.3243 20.28 61.4983 19.818 60.4203 19.818C58.4463 19.818 56.8923 21.428 56.8923 23.43C56.8923 25.432 58.4463 27.042 60.4203 27.042C61.4983 27.042 62.3243 26.58 62.8563 25.824V26.678C62.8563 27.896 62.0723 28.61 60.7703 28.61C59.5523 28.61 59.0343 28.134 58.7263 27.532L57.4243 28.288C58.0123 29.408 59.2023 29.982 60.7423 29.982C62.5763 29.982 64.3403 28.932 64.3403 26.678V20H62.8563ZM60.6303 25.628C59.3563 25.628 58.4043 24.69 58.4043 23.43C58.4043 22.17 59.3563 21.232 60.6303 21.232C61.9043 21.232 62.8563 22.17 62.8563 23.43C62.8563 24.69 61.9043 25.628 60.6303 25.628ZM69.7847 19.818C68.8327 19.818 68.0767 20.168 67.6147 20.896V20H66.1027V27H67.6147V23.248C67.6147 21.82 68.3987 21.232 69.3927 21.232C70.3447 21.232 70.9607 21.792 70.9607 22.856V27H72.4727V22.702C72.4727 20.882 71.3527 19.818 69.7847 19.818ZM78.3568 18.95C78.8888 18.95 79.3228 18.502 79.3228 17.984C79.3228 17.452 78.8888 17.018 78.3568 17.018C77.8248 17.018 77.3908 17.452 77.3908 17.984C77.3908 18.502 77.8248 18.95 78.3568 18.95ZM77.6008 27H79.1128V20H77.6008V27ZM84.5503 19.818C83.5983 19.818 82.8423 20.168 82.3803 20.896V20H80.8683V27H82.3803V23.248C82.3803 21.82 83.1643 21.232 84.1583 21.232C85.1103 21.232 85.7263 21.792 85.7263 22.856V27H87.2383V22.702C87.2383 20.882 86.1183 19.818 84.5503 19.818Z" fill="white"/>
<path d="M105.358 18L110 22.5L105.358 27M97 22.5H109.87" stroke="white" stroke-width="1.5" stroke-miterlimit="10" stroke-linecap="round" stroke-linejoin="round"/>
</svg>
