<svg width="155" height="45" viewBox="0 0 155 45" fill="none" xmlns="http://www.w3.org/2000/svg">
<rect width="155" height="45" rx="10" fill="#567DF4" fill-opacity="0.1"/>
<path d="M37.742 27.182C39.786 27.182 41.214 26.09 41.214 24.298C41.214 22.352 39.576 21.848 37.952 21.33C36.524 20.882 35.978 20.56 35.978 19.804C35.978 19.062 36.58 18.586 37.518 18.586C38.61 18.586 39.226 19.174 39.576 19.958L40.934 19.174C40.318 17.872 39.128 17.018 37.518 17.018C35.866 17.018 34.368 18.04 34.368 19.846C34.368 21.694 35.852 22.254 37.378 22.716C38.834 23.164 39.604 23.458 39.604 24.326C39.604 25.04 39.058 25.614 37.784 25.614C36.454 25.614 35.698 24.956 35.348 23.962L33.962 24.774C34.48 26.23 35.81 27.182 37.742 27.182ZM50.1608 19.818C49.2228 19.818 48.4808 20.196 48.0188 20.924C47.6128 20.224 46.9408 19.818 46.0308 19.818C45.1628 19.818 44.4768 20.154 44.0288 20.84V20H42.5168V27H44.0288V23.08C44.0288 21.806 44.7288 21.232 45.5828 21.232C46.4088 21.232 46.8988 21.778 46.8988 22.758V27H48.4108V23.08C48.4108 21.806 49.0408 21.232 49.9368 21.232C50.7628 21.232 51.2948 21.778 51.2948 22.758V27H52.8068V22.66C52.8068 20.91 51.7428 19.818 50.1608 19.818ZM59.969 20V20.994C59.437 20.266 58.611 19.818 57.519 19.818C55.615 19.818 54.033 21.414 54.033 23.5C54.033 25.572 55.615 27.182 57.519 27.182C58.611 27.182 59.437 26.734 59.969 25.992V27H61.481V20H59.969ZM57.757 25.74C56.497 25.74 55.545 24.802 55.545 23.5C55.545 22.198 56.497 21.26 57.757 21.26C59.017 21.26 59.969 22.198 59.969 23.5C59.969 24.802 59.017 25.74 57.757 25.74ZM64.7553 21.176V20H63.2433V27H64.7553V23.472C64.7553 21.904 65.9173 21.442 66.9113 21.512V19.874C66.0293 19.874 65.1753 20.224 64.7553 21.176ZM72.1122 21.456V20H70.3762V18.04L68.8642 18.488V20H67.5762V21.456H68.8642V24.816C68.8642 26.636 69.7882 27.28 72.1122 27V25.642C70.9642 25.698 70.3762 25.712 70.3762 24.816V21.456H72.1122ZM77.8079 18.95C78.3399 18.95 78.7739 18.502 78.7739 17.984C78.7739 17.452 78.3399 17.018 77.8079 17.018C77.2759 17.018 76.8419 17.452 76.8419 17.984C76.8419 18.502 77.2759 18.95 77.8079 18.95ZM77.0519 27H78.5639V20H77.0519V27ZM85.8635 17.2V20.994C85.3315 20.266 84.5055 19.818 83.4135 19.818C81.5095 19.818 79.9275 21.414 79.9275 23.5C79.9275 25.572 81.5095 27.182 83.4135 27.182C84.5055 27.182 85.3315 26.734 85.8635 25.992V27H87.3755V17.2H85.8635ZM83.6515 25.74C82.3915 25.74 81.4395 24.802 81.4395 23.5C81.4395 22.198 82.3915 21.26 83.6515 21.26C84.9115 21.26 85.8635 22.198 85.8635 23.5C85.8635 24.802 84.9115 25.74 83.6515 25.74Z" fill="#567DF4"/>
<path d="M109.5 25.38C108.59 25.38 107.85 24.64 107.85 23.73V21.26C107.85 20.35 108.59 19.61 109.5 19.61C110.41 19.61 111.15 20.35 111.15 21.26V23.73C111.15 24.64 110.41 25.38 109.5 25.38Z" stroke="#567DF4" stroke-width="1.5" stroke-linecap="round"/>
<path d="M114.48 23.97C114.28 26.55 112.12 28.57 109.5 28.57C106.74 28.57 104.5 26.33 104.5 23.57V21.43C104.5 18.67 106.74 16.43 109.5 16.43C112.09 16.43 114.22 18.4 114.47 20.92" stroke="#567DF4" stroke-width="1.5" stroke-linecap="round"/>
<path d="M112.5 12.5H114.5C117.5 12.5 119.5 14.5 119.5 17.5V19.5M99.5 19.5V17.5C99.5 14.5 101.5 12.5 104.5 12.5H106.5M112.5 32.5H114.5C117.5 32.5 119.5 30.5 119.5 27.5V25.5M99.5 25.5V27.5C99.5 30.5 101.5 32.5 104.5 32.5H106.5" stroke="#567DF4" stroke-width="1.5" stroke-miterlimit="10" stroke-linecap="round" stroke-linejoin="round"/>
</svg>
